<?xml version="1.0" encoding="UTF-8"?>
<!DOCTYPE svg PUBLIC "-//W3C//DTD SVG 1.1//EN" "http://www.w3.org/Graphics/SVG/1.1/DTD/svg11.dtd">
<!-- Creator: CorelDRAW 2018 (64-Bit) -->
<svg xmlns="http://www.w3.org/2000/svg" xml:space="preserve" width="25.6848mm" height="30.1606mm" version="1.1" style="shape-rendering:geometricPrecision; text-rendering:geometricPrecision; image-rendering:optimizeQuality; fill-rule:evenodd; clip-rule:evenodd"
viewBox="0 0 273.53 321.2"
 xmlns:xlink="http://www.w3.org/1999/xlink">
 <defs>
  <style type="text/css">
   <![CDATA[
    .fil0 {fill:#FEFEFE}
    .fil2 {fill:#E31E24}
    .fil1 {fill:#393185}
   ]]>
  </style>
 </defs>
 <g id="Слой_x0020_1">
  <metadata id="CorelCorpID_0Corel-Layer"/>
  <ellipse class="fil0" cx="136.77" cy="160.6" rx="136.77" ry="160.6"/>
  <path class="fil1" d="M136.77 0c75.52,0 136.77,71.92 136.77,160.6 0,88.68 -61.25,160.6 -136.77,160.6 -75.52,0 -136.77,-71.92 -136.77,-160.6 0,-88.68 61.25,-160.6 136.77,-160.6zm-0 8.16c71.25,0 129.04,68.26 129.04,152.44 0,84.17 -57.79,152.44 -129.04,152.44 -71.25,0 -129.04,-68.26 -129.04,-152.44 0,-84.17 57.79,-152.44 129.04,-152.44z"/>
  <path class="fil1" d="M136.42 30.98c60.77,0 110.05,57.86 110.05,129.2 0,71.34 -49.28,129.2 -110.05,129.2 -60.77,0 -110.05,-57.86 -110.05,-129.2 0,-71.34 49.28,-129.2 110.05,-129.2zm0 8.21c56.69,0 102.67,54.18 102.67,120.99 0,66.81 -45.98,120.99 -102.67,120.99 -56.69,0 -102.67,-54.18 -102.67,-120.99 0,-66.81 45.98,-120.99 102.67,-120.99z"/>
  <path class="fil2" d="M136.24 14.91c68.15,0 123.42,64.96 123.42,145.05 0,80.09 -55.27,145.05 -123.42,145.05 -68.15,0 -123.42,-64.96 -123.42,-145.05 0,-80.09 55.27,-145.05 123.42,-145.05zm0 8.89c63.8,0 115.54,60.97 115.54,136.16 0,75.18 -51.74,136.16 -115.54,136.16 -63.8,0 -115.54,-60.98 -115.54,-136.16 0,-75.18 51.74,-136.16 115.54,-136.16z"/>
  <path class="fil1" d="M156.65 143.04c5.77,-1.09 12.63,-1.67 21.38,-1.34 5.33,0.2 8.73,0.93 13.33,3.89 10.72,6.88 9.48,16.4 2.22,25.35 -6.25,7.7 -29.79,10.53 -30.32,12.79 9.5,0.55 15.51,4.3 19.15,10.22 9.62,22.69 -5.56,34.01 -25.76,39.35l0 13.28 13.83 0 0 14.56 -13.83 0 -6.28 0 -25.41 0 -6.28 0 -15.07 0 0 -14.56 15.07 0 0 -8.99c-5.63,0.01 -10.65,-0.22 -14.54,-0.55 -13.45,-2.51 -24.85,-7.7 -33.27,-16.81 13.71,4.6 31.46,6.46 47.81,5.37l0 -28.72c-8.84,-2.48 -11.51,-10.02 -4.71,-13.78 1.6,-0.08 3.17,-0.18 4.71,-0.29l0 -15.18c-7.22,-0.16 -14.44,6.19 -21.66,5.11 -4.05,-4.24 3.21,-3.84 4.81,-5.75 -3.3,-1.22 -12.78,3.73 -11.38,-2.69 0.82,-3.76 3.53,-6.68 10.3,-7.87 4.38,-0.77 10.67,-0.87 17.92,-0.79l0 -26.14 -15.07 0 0 -14.56 66.88 0 0 14.56 -13.83 0 0 13.53zm-6.28 91.71c-8.41,1.67 -17.3,2.47 -25.41,2.74l0 9.1 25.41 0 0 -11.83zm-25.41 -9.72c9.65,-1.13 18.52,-3.35 25.41,-6.72l0 -26.71c-2.11,-2.63 -12.6,-1.03 -25.41,3.11l0 30.31zm31.69 -10.53c12.12,-6.36 10.03,-17 0,-21.26l0 21.26zm-31.69 -32.21c10.2,-1 18.61,-2.63 25.06,-4.93l0.36 -0.13 0 -47.73 -25.41 0 0 52.79zm31.69 -7.98c3.96,-2.17 7.88,-4.91 10.88,-7.54 9.1,-8 5.21,-17.15 -10.88,-11.85l0 19.4z"/>
  <ellipse class="fil2" cx="137.36" cy="79.78" rx="23.39" ry="27.73"/>
 </g>
</svg>
