<?xml version="1.0" encoding="UTF-8"?>
<!DOCTYPE svg PUBLIC "-//W3C//DTD SVG 1.1//EN" "http://www.w3.org/Graphics/SVG/1.1/DTD/svg11.dtd">
<!-- Creator: CorelDRAW 2018 (64-Bit) -->
<svg xmlns="http://www.w3.org/2000/svg" xml:space="preserve" width="63.6854mm" height="63.6852mm" version="1.1" style="shape-rendering:geometricPrecision; text-rendering:geometricPrecision; image-rendering:optimizeQuality; fill-rule:evenodd; clip-rule:evenodd"
viewBox="0 0 6368.54 6368.52"
 xmlns:xlink="http://www.w3.org/1999/xlink">
 <defs>
  <style type="text/css">
   <![CDATA[
    .str0 {stroke:#2B2A29;stroke-width:20;stroke-miterlimit:22.9256}
    .str1 {stroke:#262423;stroke-width:7.62;stroke-miterlimit:22.9256}
    .fil0 {fill:#FEFEFE}
    .fil3 {fill:#E31E24}
    .fil1 {fill:#262423}
    .fil2 {fill:#E31E24;fill-rule:nonzero}
   ]]>
  </style>
 </defs>
 <g id="Слой_x0020_1">
  <metadata id="CorelCorpID_0Corel-Layer"/>
  <g id="_975901296">
   <path class="fil0 str0" d="M3184.28 65.48c1708.62,0 3093.77,1396.34 3093.77,3118.78 0,1722.43 -1385.15,3118.77 -3093.77,3118.77 -1708.62,0 -3093.77,-1396.34 -3093.77,-3118.77 0,-1722.44 1385.15,-3118.78 3093.77,-3118.78z"/>
   <path class="fil1 str1" d="M3184.21 3.81c1756.29,0 3180.52,1424.15 3180.52,3180.45 0,1756.25 -1424.23,3180.45 -3180.52,3180.45 -1756.16,0 -3180.4,-1424.2 -3180.4,-3180.45 0,-1756.3 1424.24,-3180.45 3180.4,-3180.45zm0 140.47c1678.67,0 3039.88,1361.33 3039.88,3039.98 0,1678.65 -1361.21,3039.94 -3039.88,3039.94 -1678.59,0 -3039.85,-1361.29 -3039.85,-3039.94 0,-1678.65 1361.26,-3039.98 3039.85,-3039.98z"/>
   <path class="fil1" d="M4394.49 3647.38c-602.32,276.81 -1060.3,490.51 -1060.3,1206.66l0 79.18c0,133.04 118.23,286.08 206.93,328.16 177.34,84.21 238.44,73.22 393.95,-4.24 202.81,-101.06 465.92,-295.44 632.3,-437.59 411.47,-351.67 649.37,-707.18 748.84,-1150 -47.1,12.17 -96.94,14.88 -129.79,42.47 -427.06,358.27 -450.94,428.49 -861.92,428.49l-99.02 0c-46.41,0 -79.21,-32.92 -79.21,-79.29 0,-274.3 1030.81,-379.4 1162.79,-441.83 234.03,-110.18 110.74,-759.46 83.19,-965.62 -188.16,-15.62 -335.63,-167.38 -548.02,-185.02 -810.78,438.83 -2845.67,206.7 -3691.84,206.7 -366.91,0 -286,1034.65 -40.51,1034.65l162.36 -5.62c385.76,0 3049.12,-40.45 3120.25,-57.1zm-683.92 -2579.03c-38.81,107.12 -401.1,240.75 -531.74,280.51 -62.19,18.97 -640.14,134.47 -696.33,135.7 20.35,-76.37 96.05,-136.83 154.76,-182.12 110.74,-85.24 78.43,-73.66 140.87,-193.05l-57.98 -60.85c-572.09,133.33 -1191.93,566.35 -1472.86,1082.98 -85.72,157.63 -240.53,400.7 66.56,400.7 21.29,0 259.94,-116.09 310.12,-143.93 176.99,-97.91 164.14,32.96 306.34,-108.55 98.93,-98.5 209.07,-481.5 393.71,-616.81 0,140.13 54.5,356.74 178.24,356.74 122.05,0 131.33,-48.04 296.86,-59.67 72.17,-5.07 265.75,-17 344.82,-31.49 180.67,-33.01 718.36,-71.15 915.76,-71.15 334.84,76.38 1197.94,413.56 1197.94,347.97 0,-22.96 -249.07,-373 -265.84,-400.59 -165.63,-272.29 -1075.59,-736.39 -1281.23,-736.39zm-544.59 2647.71c-191.4,0 -377.63,228.19 -525.04,327.03 -189.21,-44.15 -458.13,-180.09 -673.45,-180.09l-298.6 -11.04 -513.48 70.51 0 59.47c0,101.11 329.13,554.92 475.41,554.92 108.5,0 266.83,-138.7 475.3,-138.7l20.5 -4.34 177.54 24.19c-43.87,65.69 -297.06,379.95 -297.06,436.03l0 59.52c0,155.01 464.04,301.95 613.98,336.88 120.57,-80.81 59.42,-180.04 59.42,-297.31 0,-204.59 48.19,-381.53 118.87,-515.26 99.32,23.16 415.99,221.49 415.99,138.76 0,-36.47 -45.41,-50.46 -65.27,-66.62l-73.46 -131.66 39.61 0c-9.98,-121.16 -111.73,-192.17 -198.04,-237.84l247.78 -424.45zm1059.5 -1676.58l-138.63 -59.38c-465.47,0 -947.33,187.34 -1426.8,179.11 -94.36,-1.57 -454.86,-73.17 -454.86,58.69 0,54.99 142.7,252.72 187.22,347.77 58.08,123.68 257.16,118.85 419.67,81.11 318.75,-73.91 674.79,-52.28 1056.88,-52.28 63.28,-42.43 376.33,-359.75 376.33,-436.03 0,-68.49 -11.77,-42.47 -19.81,-118.99z"/>
   <path class="fil2" d="M1041.51 1928.84l72.44 -114.67 61.07 22.23 49.56 -78.47 -320.34 -107.75c-43.34,-15.42 -72.82,1.54 -100.68,45.65 -27.57,43.65 -30.65,78.22 1.55,111.28l232.64 246.58 49.27 -78 -45.51 -46.85zm-175.33 -192.79c5,-7.92 8.91,-7.98 15.33,-5.84l156.75 56.26 -53.38 84.5 -117.46 -118.47c-4.64,-4.93 -6.52,-8.1 -1.24,-16.45zm141.01 -320.17l-55.57 72.2 302.05 236.15 55.55 -72.22 -302.03 -236.13zm131.94 -153.14l-63.08 66.39 275.98 266.57 63.09 -66.38 -110.79 -107.02 20.79 -21.86c17.76,-18.68 41.3,-19.58 78.36,-1.3l90.22 47.5 70.27 -73.93 -127.12 -56.42c-24.54,-10.79 -66.95,-25.82 -96.85,-15.05l-56.56 -190.34 -70.27 73.94 56.78 163.08 -20.41 21.46 -110.41 -106.64zm278.46 -263.45l-68.79 59.54 248.94 292.39 68.79 -59.54 -248.94 -292.39zm431.52 158.49c77.9,-50.89 85.46,-120.11 52.21,-171.86l-85.2 -132.59c-29.99,-46.65 -93.27,-72.22 -174.86,-18.93l-130.6 85.29 207.83 323.39 130.62 -85.3zm-218.56 -220.61l54.07 -35.31c25.2,-16.48 48.89,-8.99 63.75,14.11l73.32 114.1c11.87,18.48 8.18,45.14 -15.63,60.7l-54.09 35.33 -121.42 -188.93zm607.82 -202.38c-46.15,-102.81 -114.16,-164.82 -237.04,-108.78 -122.86,56.06 -122.04,148.72 -75.89,251.53 45.71,101.8 113.21,164.06 237.09,107.53 123.87,-56.51 121.52,-148.48 75.84,-250.28zm-203.94 -35.07c68.66,-31.31 97.27,19.08 121.35,72.74 23.64,52.65 43.01,107.84 -26.14,139.38 -69.63,31.79 -97.95,-19.32 -121.59,-71.97 -24.1,-53.66 -42.79,-108.58 26.38,-140.15zm747.12 -85.15l85.91 -237.13 -97.71 18.22 -47.02 146.47 -95.83 -119.84 -98.24 18.3 164.82 190.39 30.29 165.11 88.05 -16.43 -30.27 -165.09zm494.98 -59.05c-3.49,-112.76 -42.7,-196.35 -177.49,-192.1 -134.8,4.26 -169.31,90.17 -165.8,202.94 3.47,111.7 42.13,195.29 178.03,190.99 135.9,-4.28 168.73,-90.13 165.26,-201.83zm-174.99 -111.23c75.31,-2.36 82.56,55.24 84.4,114.09 1.79,57.78 -1.33,116.24 -77.17,118.63 -76.4,2.41 -83.12,-55.73 -84.91,-113.51 -1.84,-58.87 1.81,-116.8 77.68,-119.21zm530.62 37.21l9.6 -79.8 -157.22 -19.22c-81.31,-9.92 -115.85,44.07 -122.81,102 -7.1,59.03 16.56,118.46 94.62,128l68.3 8.33c23.86,2.92 25.87,22.59 23.9,38.97 -2.23,18.59 -8.84,37.18 -32.7,34.26l-159.91 -19.53 -9.53 79.25 159.91 19.52c75.36,9.21 123.94,-38.09 131.7,-102.58 7.61,-63.37 -11.63,-118.41 -103.79,-129.66l-67.76 -8.27c-14.1,-1.72 -14.39,-26.71 -13.13,-37.1 1.11,-9.27 6.43,-35.24 21.6,-33.39l157.22 19.22zm241.15 -28.94l-87.14 -25.21 -105.43 370.36 87.14 25.22 43.23 -151.85 115.45 33.39 -43.23 151.87 86.61 25.05 105.43 -370.38 -86.61 -25.05 -40.2 141.25 -115.47 -33.39 40.22 -141.26zm388.43 131.21l-84.16 -34.02 -142.21 357.66 84.16 34.01 142.21 -357.65zm112.15 174.16l4.88 2.47c-7.25,36.4 -13.57,83.14 -14.46,116.62l-4.66 180.18 90.64 46.19 172.42 -343.86 -76.02 -38.76 -69.96 139.51c-13.31,26.53 -25.45,62.93 -33.37,87.25l-3.4 -1.74c6.26,-31.96 9.79,-57.31 10.15,-86.11l6.43 -184.85 -99.41 -50.67 -172.46 343.88 76.05 38.76 67 -133.63c13.55,-27.02 36.5,-83.77 46.17,-115.24zm430.3 130.35l-73.97 -53.76 -223.55 312.54 73.97 53.76 89.73 -125.45 24.36 17.72c20.81,15.11 24.97,38.5 12.17,78.06l-34.15 96.65 82.39 59.88 37.79 -134.73c7.17,-25.99 16.06,-70.44 1.33,-98.79l179.13 -82.88 -82.39 -59.89 -152.33 79.31 -23.92 -17.39 89.44 -125.03zm78.67 480.06l97.36 94.06 -33.56 56.02 66.6 64.35 167.56 -295.55c23.49,-39.83 12.76,-72.29 -24.7,-108.49 -37.03,-35.8 -70.07,-45.61 -108.54,-20.24l-285.43 181.69 66.23 63.98 54.48 -35.82zm221.9 -135.55c6.7,6.46 5.99,10.36 2.67,16.29l-85.42 143.93 -71.77 -69.32 138.24 -92.91c5.73,-3.63 9.18,-4.86 16.28,2.01zm200.71 289.93l3.14 4.51c-23.31,28.73 -50.62,67.02 -66.98,96.18l-87.87 156.97 58.6 83.61 312.17 -222.32 -49.15 -70.15 -126.66 90.21c-24.08,17.16 -51.7,43.58 -70.01,61.32l-2.21 -3.14c20.39,-25.3 35.29,-46.01 49,-71.29l91.59 -160.27 -64.28 -91.7 -312.18 222.32 49.18 70.15 121.31 -86.4c24.52,-17.47 71.18,-56.75 94.35,-80zm448.12 768.75l74.1 -29.65 -58.42 -148.39c-30.2,-76.75 -93.75,-81.52 -147.58,-59.99 -54.81,21.94 -95.28,71.29 -66.27,144.96l25.37 64.47c8.86,22.51 -7.3,33.7 -22.51,39.79 -17.27,6.91 -36.62,9.94 -45.49,-12.6l-59.43 -150.93 -73.59 29.45 59.41 150.93c28.02,71.13 92.45,91.55 152.33,67.58 58.86,-23.54 97.63,-66.89 63.37,-153.87l-25.18 -63.95c-5.22,-13.31 16.41,-25.5 26.05,-29.36 8.62,-3.46 33.78,-11.15 39.42,3.17l58.42 148.39zm139.11 196.91l-20.39 -89.05 -372.43 86.62 20.36 89.05 152.71 -35.51 27 117.99 -152.68 35.51 20.25 88.49 372.43 -86.6 -20.25 -88.51 -142.05 33.03 -27 -117.98 142.05 -33.04zm71.71 408.28l-10.92 -90.75 -379.45 46.37 10.9 90.72 379.47 -46.34zm-98.82 183.61l0.18 5.51c-35.16,11.01 -78.88,27.81 -108.46,43.06l-159.14 82.19 3.2 102.33 382.03 -12.12 -2.67 -85.87 -155.01 4.93c-29.47,0.94 -66.95,7.65 -91.94,12.28l-0.13 -3.85c30.84,-9.79 54.61,-18.79 79.84,-32.26l164.05 -82.85 -3.51 -112.26 -382.03 12.13 2.67 85.84 148.46 -4.71c30.01,-0.95 90.44,-7.82 122.46,-14.35zm92.72 441.47l10.96 -91.26 -379.44 -46.36 -10.97 91.25 152.31 18.62 -3.6 30.07c-3.1,25.68 -21.39,40.63 -61.94,48.43l-100.43 16.57 -12.23 101.62 135.28 -31.72c26.05,-6.22 68.95,-19.84 86.46,-46.54l158.5 118.07 12.23 -101.67 -142.47 -96.11 3.56 -29.52 151.78 18.55zm-485.98 443.67l76.28 21.34 31.71 -115.09c7.45,-27.06 31.58,-38.59 52.63,-32.68l28.92 8.09 -37.81 137.36 76.29 21.35 37.83 -137.35 24.7 6.91c26.31,7.35 40.35,28.42 32.62,56.53l-31.69 115.11 76.82 21.49 31.7 -115.11c25.85,-93.87 -17.31,-147.08 -70.44,-161.95l-151.01 -42.26c-58.93,-16.5 -122.32,12.06 -146.87,101.16l-31.68 115.1zm199.03 238.63l-2.24 5.01c-36.39,-5.57 -83,-9.74 -116.22,-9.07l-178.75 3.77 -41.53 93.44 348.87 157.49 34.82 -78.4 -141.54 -63.89c-26.93,-12.15 -63.55,-22.64 -88.03,-29.47l1.57 -3.52c31.98,4.8 57.25,7.16 85.8,6.18l183.46 -2.23 45.53 -102.49 -348.84 -157.47 -34.82 78.38 135.56 61.19c27.4,12.37 84.72,32.83 116.36,41.08zm-454.43 288.8c-49.46,79.17 -27.48,145.2 24.28,178.06l132.61 84.19c46.65,29.62 114.74,26.01 166.55,-56.91l82.92 -132.74 -323.41 -205.34 -82.95 132.74zm290.29 107.53l-34.32 54.97c-16.01,25.61 -40.62,28.89 -63.72,14.2l-114.13 -72.45c-18.48,-11.72 -26.24,-37.49 -11.12,-61.72l34.34 -54.95 188.95 119.95zm-474.5 438.06c83.96,74.58 171.26,102.96 260.41,0.96 89.16,-102.01 50.64,-186.16 -33.34,-260.74 -83.19,-73.89 -170.11,-102.67 -260,0.18 -89.88,102.83 -50.26,185.73 32.93,259.6zm200.2 -52.54c-49.84,56.99 -96.45,22.91 -140.3,-16.03 -43.01,-38.21 -83.16,-80.49 -32.99,-137.89 50.52,-57.82 97.2,-22.98 140.21,15.25 43.83,38.92 83.25,81.25 33.08,138.67zm-626.79 242.57l-113.19 73.89 -46.37 -45.81 -77.44 50.56 246.84 232.31c33.04,32.21 66.85,29.14 110.38,0.72 43.1,-28.14 60.15,-58.27 44.52,-101.85l-109.81 -321.79 -77 50.26 22.07 61.71zm79.87 248.85c-7.81,5.08 -11.39,3.5 -16.34,-1.14l-119.34 -116.87 83.43 -54.48 57.91 157c2.19,6.42 2.59,10.1 -5.66,15.49zm-267.07 233.99l81.06 -40.91 -171.08 -344.57 -81.06 40.91 171.08 344.57zm-175.97 79.93l84.65 -34.19 -142.21 -357.68 -84.64 34.22 57.07 143.57 -27.88 11.26c-23.82,9.63 -45.64,0.64 -71.91,-31.43l-62.71 -80.81 -94.29 38.1 92.67 104.27c17.94,20.04 50.42,51.41 82.06,54.04l-26.44 196.89 94.28 -38.11 15.08 -172.16 27.38 -11.05 56.89 143.08zm-366.11 122.82l87.3 -24.65 -103.15 -371.03 -87.3 24.68 103.15 371zm-171.39 -354.2l-148.75 27.71c-74.12,13.82 -124.46,60.14 -111.07,133.21 7.74,42.24 34.26,68.63 67.58,74.74 -19.33,18.7 -31.75,47.9 -26.27,83.84 11.34,74 72.13,99.61 146.23,85.82l141.76 -26.42 -69.48 -378.9zm-58.82 169.93l-63.35 11.81c-28.99,5.39 -43.91,-6.38 -47.98,-28.55 -4.58,-24.9 1.57,-42.85 30.56,-48.24l66.58 -12.42 14.19 77.4zm-24.54 156.83c-29.54,5.51 -46.35,-1.44 -50.66,-28.06 -4.47,-24.36 11.03,-39.57 35.23,-44.07l53.68 -10.01 13.29 72.54 -51.54 9.6zm-553.47 119.35l90.62 -2.88 -8.01 -255.83c-1.23,-40.17 25.65,-53.14 63.86,-54.34 38.74,-1.23 67.51,9.96 68.75,50.13l8.01 255.85 90.61 -2.9 -8.07 -258.57c-2.7,-85.84 -72.9,-129.31 -161.86,-126.48 -90.06,2.86 -154.67,50.6 -151.98,136.45l8.07 258.57zm-403.08 -47.59l274.3 33.5 9.58 -79.78 -184.84 -22.58 21.01 -174.87c4.86,-40.44 23,-49.31 60.92,-44.67 37.96,4.64 55.06,17.81 50.19,58.25l-2.1 17.49 90.02 10.99 1.9 -15.85c10.31,-85.77 -41.86,-141.5 -130.22,-152.29 -89.42,-10.94 -150.03,31.01 -160.33,116.79l-30.43 253.02zm-427.76 -116.05l87.3 24.66 68.51 -246.47c10.77,-38.7 40.26,-42.94 77.08,-32.53 37.32,10.55 61.43,29.92 50.68,68.62l-68.53 246.46 87.3 24.68 69.26 -249.12c22.97,-82.7 -31.05,-145.4 -116.75,-169.61 -86.77,-24.5 -162.62,1.49 -185.61,84.21l-69.24 249.1zm-305.83 -224.69l-32.59 73.36 240.71 108.67 32.59 -73.36 -79.24 -35.78 123.62 -278.3 -83.2 -37.58 -123.63 278.32 -78.26 -35.33zm-297.34 -183.92l-42.83 67.79 133.58 85.75c69.08,44.36 123.36,10.68 154.45,-38.54 31.69,-50.16 35.8,-114.06 -30.53,-156.64l-58.03 -37.25c-20.27,-13.02 -13.66,-31.63 -4.88,-45.54 9.97,-15.8 23.92,-29.69 44.2,-16.67l135.86 87.22 42.54 -67.32 -135.88 -87.22c-64.04,-41.1 -128.12,-19.59 -162.72,35.2 -34.01,53.85 -40.22,111.85 38.07,162.12l57.58 36.96c11.97,7.69 1.53,30.36 -4.04,39.16 -4.98,7.92 -20.9,29 -33.79,20.73l-133.58 -85.75zm-398.39 -224.27l67.99 60.43 167.9 -192.01c26.36,-30.16 54.77,-21.04 83.45,4.44 29.08,25.83 42.46,53.83 16.08,83.99l-167.88 192.01 68.02 60.43 169.69 -194.06c56.32,-64.45 34.65,-144.58 -32.11,-203.9 -67.6,-60.07 -147.13,-69.83 -203.45,-5.41l-169.69 194.08zm28.17 -548.73l-86.59 -125.03c-43.14,-62.3 -105.81,-89.32 -166.24,-46.81 -34.94,24.61 -47.81,59.83 -39.56,92.95 -24.87,-10.01 -56.38,-9.29 -86.57,10.59 -62.13,41.04 -60.1,107.44 -16.98,169.7l82.54 119.17 313.4 -220.57zm-177.78 16.36l-36.91 -53.27c-16.87,-24.37 -12.4,-42.94 5.93,-55.84 20.61,-14.49 39.36,-16.27 56.23,8.09l38.76 55.95 -64.01 45.07zm-151.8 42.38c-17.2,-24.84 -17.87,-43.14 4.38,-58.12 20.14,-14.17 40.29,-6.24 54.37,14.09l31.24 45.14 -59.99 42.22 -30 -43.33zm-173.67 -567.8c-101.98,46.53 -163.5,115.09 -107.91,238.96 55.62,123.85 147.54,123.02 249.52,76.5 100.98,-46.07 162.74,-114.13 106.66,-239 -56.05,-124.87 -147.28,-122.51 -248.27,-76.46zm-34.78 205.59c-31.07,-69.21 18.93,-98.05 72.15,-122.33 52.23,-23.83 106.98,-43.36 138.27,26.35 31.53,70.19 -19.17,98.75 -71.4,122.58 -53.23,24.29 -107.71,43.13 -139.02,-26.6zm-259.46 -505.04l74.53 268.18 76.78 -21.69 -50.24 -180.73 168.25 -47.53c38.9,-10.99 54,2.48 64.3,39.57 10.31,37.11 4.8,58.09 -34.09,69.08l-16.85 4.75 24.47 88 15.26 -4.3c82.52,-23.32 113.57,-93.27 89.53,-179.66 -24.3,-87.45 -85.97,-127.75 -168.49,-104.44l-243.45 68.77zm-70.92 -440.11l10.9 90.72 252.08 -30.8c39.58,-4.82 54.79,21.02 59.39,59.29 4.65,38.79 -3.84,68.66 -43.42,73.49l-252.08 30.79 10.92 90.74 254.75 -31.14c84.58,-10.32 121.29,-84.68 110.59,-173.75 -10.84,-90.17 -63.77,-150.8 -148.35,-140.48l-254.78 31.14zm75.98 -371.52l-79.69 -2.5 -8.18 265.73 79.69 2.5 2.7 -87.47 302.33 9.45 2.83 -91.88 -302.33 -9.45 2.65 -86.38zm34.05 -332.42l-79.16 -9.68 -19.06 158.49c-9.84,81.96 43.72,116.78 101.18,123.8 58.56,7.16 117.51,-16.69 126.97,-95.38l8.27 -68.86c2.9,-24.05 22.4,-26.08 38.65,-24.09 18.45,2.25 36.89,8.91 33.99,32.97l-19.37 161.2 78.61 9.61 19.37 -161.21c9.13,-75.96 -37.79,-124.94 -101.76,-132.76 -62.87,-7.67 -117.46,11.72 -128.63,104.63l-8.2 68.3c-1.7,14.22 -26.49,14.51 -36.8,13.24 -9.19,-1.11 -34.95,-6.48 -33.12,-21.78l19.06 -158.48zm37.35 -459.55l-25.23 87.78 243.9 71.22c38.29,11.19 42.23,40.99 31.59,78 -10.79,37.53 -30.22,61.65 -68.52,50.48l-243.88 -71.24 -25.23 87.78 246.51 72c81.81,23.9 144.48,-30.02 169.25,-116.2 25.07,-87.24 -0.05,-163.93 -81.89,-187.82l-246.5 -72z"/>
   <path class="fil2" d="M1416.01 2966.56l0 -141.81 -266.88 0c-138.04,0 -184.97,102 -184.97,204.96 0,104.9 51.53,203.99 184.06,203.99l115.94 0c40.49,0 47.86,33.99 47.86,63.12 0,33.02 -7.37,67.03 -47.86,67.03l-271.47 0 0 140.84 271.47 0c127.92,0 199.71,-93.25 199.71,-207.87 0,-112.68 -43.25,-204.94 -199.71,-204.94l-115.03 0c-23.93,0 -29.44,-43.71 -29.44,-62.17 0,-16.51 3.67,-63.15 29.44,-63.15l266.88 0zm301.86 -141.81l-152.75 0 0 679.94 152.75 0 0 -278.77 202.45 0 0 278.77 151.85 0 0 -679.94 -151.85 0 0 259.35 -202.45 0 0 -259.35zm630.4 0l-152.76 0 0 679.94 152.76 0 0 -679.94zm249.4 197.18l9.21 0c16.55,63.15 42.34,141.82 66.25,195.25l128.85 287.51 171.17 0 0 -679.94 -143.57 0 0 275.87c0,52.45 9.21,119.48 15.65,164.15l-6.44 0c-14.72,-55.37 -28.53,-98.1 -49.69,-143.75l-129.76 -296.27 -187.73 0 0 679.94 143.55 0 0 -264.19c0,-53.44 -8.28,-161.26 -17.49,-218.57zm652.49 -197.18l-153.69 0 0 679.94 153.69 0 0 -272.95 50.6 0c43.25,0 71.78,29.15 92.94,99.08l47.86 173.87 171.17 0 -80.06 -232.14c-15.65,-44.69 -46.93,-117.54 -94.78,-142.79l163.8 -305.01 -171.17 0 -130.67 271.97 -49.69 0 0 -271.97zm586.21 0l-152.76 0 0 679.94 152.76 0 0 -679.94zm277.02 0l-153.68 0 0 679.94 153.68 0 0 -272.95 50.6 0c43.26,0 71.79,29.15 92.95,99.08l47.86 173.87 171.17 0 -80.06 -232.14c-15.65,-44.69 -46.93,-117.54 -94.79,-142.79l163.81 -305.01 -171.18 0 -130.66 271.97 -49.7 0 0 -271.97zm568.73 567.26l227.31 0 23.93 112.68 155.52 0 -138.04 -582.8c-17.48,-79.64 -68.11,-107.82 -155.52,-107.82 -86.51,0 -138.04,28.18 -155.52,107.82l-137.13 582.8 154.61 0 24.84 -112.68zm113.2 -445.84c15.65,0 19.32,5.84 22.09,17.5l62.58 288.46 -167.5 0 60.74 -288.46c2.77,-11.66 5.51,-17.5 22.09,-17.5zm525.47 -121.42l-152.75 0 0 679.94 152.75 0 0 -679.94z"/>
   <path class="fil3" d="M768.73 1935.24c64.64,0 117.02,52.8 117.02,117.96 0,65.15 -52.38,117.96 -117.02,117.96 -64.63,0 -117.01,-52.81 -117.01,-117.96 0,-65.16 52.38,-117.96 117.01,-117.96z"/>
   <path class="fil3" d="M5449.11 1787.78c64.63,0 117.02,52.81 117.02,117.97 0,65.15 -52.39,117.96 -117.02,117.96 -64.63,0 -117.02,-52.81 -117.02,-117.96 0,-65.16 52.39,-117.97 117.02,-117.97z"/>
   <path class="fil3" d="M4875.77 5055.17c64.63,0 117.01,52.8 117.01,117.96 0,65.16 -52.38,117.96 -117.01,117.96 -64.64,0 -117.02,-52.8 -117.02,-117.96 0,-65.16 52.38,-117.96 117.02,-117.96z"/>
   <path class="fil3" d="M1214.65 4808.76c64.63,0 117.01,52.81 117.01,117.97 0,65.15 -52.38,117.96 -117.01,117.96 -64.64,0 -117.02,-52.81 -117.02,-117.96 0,-65.16 52.38,-117.97 117.02,-117.97z"/>
  </g>
 </g>
</svg>
