<?xml version="1.0" encoding="UTF-8"?>
<!DOCTYPE svg PUBLIC "-//W3C//DTD SVG 1.1//EN" "http://www.w3.org/Graphics/SVG/1.1/DTD/svg11.dtd">
<!-- Creator: CorelDRAW 2018 (64-Bit) -->
<svg xmlns="http://www.w3.org/2000/svg" xml:space="preserve" width="31.0048mm" height="9.603mm" version="1.1" style="shape-rendering:geometricPrecision; text-rendering:geometricPrecision; image-rendering:optimizeQuality; fill-rule:evenodd; clip-rule:evenodd"
viewBox="0 0 3100.48 960.3"
 xmlns:xlink="http://www.w3.org/1999/xlink">
 <defs>
  <style type="text/css">
   <![CDATA[
    .fil0 {fill:#EC671F}
    .fil1 {fill:#EC671F;fill-rule:nonzero}
   ]]>
  </style>
 </defs>
 <g id="Слой_x0020_1">
  <metadata id="CorelCorpID_0Corel-Layer"/>
  <g id="_1801871440">
   <path class="fil0" d="M162.25 210.61c-1.44,-2.16 -2.98,-5.04 -3.8,-6.78l-8.64 -19.7c-3.14,-9.14 -1.97,-10.02 -3.33,-17.4l-39.22 -2.68 -107.26 -1.27 136.02 492.55c7.47,28.06 9.4,47.06 25.05,71.25 139.06,3.35 144.66,-9.7 172.73,-135.44 9.85,-44.13 40,-219.26 55.87,-245.64l84.42 380.65 144.18 0.45c19.06,-32.06 146.63,-499.71 156.42,-557.46 -141.96,-27.66 -151.31,8.71 -176.4,119.62 -18.55,82.04 -35.14,168.83 -57.71,247.72l-76.96 -368.97c-188.74,-21.64 -182.54,140.59 -227.31,369.98 -17.83,-30.86 -71.8,-281.21 -74.06,-326.88z"/>
   <path class="fil0" d="M1262.87 554.14c-227.26,-12.29 -124.05,40.14 -214.74,57.2 -97.32,18.31 -133.66,-40.7 -141.47,-123.98l362.05 -2.1c59.82,-393.85 -458.96,-454.31 -508.43,-111.63 -64.49,446.69 433.54,459.2 502.59,180.51zm-356.62 -168.08l211.6 2.08c-8.44,-69.35 -30.46,-109.83 -102.22,-111.46 -71.39,-1.62 -99.89,43.95 -109.38,109.38z"/>
   <path class="fil0" d="M3090.05 553.42c-235.07,-4.06 -116.28,38.79 -213.23,57.86 -96.19,18.92 -136.14,-41.76 -142.46,-125.4l361.86 -0.88c23.96,-166.22 -55.01,-301.39 -193.87,-326.82 -178.65,-32.7 -291.95,61.84 -314.58,214.41 -66.37,447.49 439.13,460.73 502.28,180.83zm-355.48 -165.98l211.77 0.89c-10.5,-68.6 -28,-110.35 -102.04,-111.43 -74.03,-1.08 -102.85,42.23 -109.73,110.54z"/>
   <path class="fil0" d="M1758.64 310.18c100.88,2.21 112.68,12.62 155.1,-18.23 31.23,-22.72 113.06,-35 148.39,-3.64 88.06,78.16 -166.31,97.8 -214.24,115.53 -152.99,56.56 -181.42,363.88 156.55,330.79 108.72,-10.64 175.87,-55.61 201.8,-141.55 15.21,-50.39 19.92,-288.32 3.47,-334.51 -30.27,-84.96 -134.25,-110.6 -245.52,-105.67 -112.04,4.97 -189.67,54.73 -205.55,157.28zm320.55 139.93c-34.95,8.19 -112.68,26.48 -145.99,38.71 -48.48,17.8 -71.34,73.53 -33.49,112.85 30.99,32.19 99.94,22.92 134.74,-2.92 42.92,-31.86 43.82,-80.01 44.74,-148.64z"/>
   <path class="fil0" d="M1645.46 725.85l3.94 -417.25c68.67,-22.51 94.84,-8.44 88.67,-109.13l-89.07 -1.02c1.12,-85.94 6.53,-76.04 87.64,-77.98l3.29 -118.34c-267.19,-18.18 -236.04,79.76 -236.24,314.94 -0.33,387.13 -37.62,425.24 141.77,408.78z"/>
   <path class="fil0" d="M1308.96 37.67l-0.5 689.27 150.55 -0.89 -0.97 -637.58c0.02,-95.81 -63.22,-87.43 -149.34,-86.98l0.26 36.18z"/>
   <path class="fil0" d="M2265.07 726.36l150.11 0.47c-3.4,-385.8 -32.15,-397.71 166.29,-411.57l1 -148.26c-384.66,-27.7 -312.83,342.46 -317.4,559.36z"/>
   <path class="fil1" d="M1276.26 842.9l27.54 0 20.53 58.24 20.88 -58.24 27.35 0 0 83.58 -18.84 0 0 -55.02 -20.24 55.02 -18.97 0 -19.41 -55.02 0 55.02 -18.84 0 0 -83.58zm166.79 57.17l22.06 3.7c-2.82,8.08 -7.3,14.23 -13.39,18.47 -6.12,4.21 -13.77,6.33 -22.93,6.33 -14.52,0 -25.28,-4.75 -32.23,-14.25 -5.5,-7.62 -8.27,-17.23 -8.27,-28.85 0,-13.85 3.63,-24.72 10.85,-32.56 7.22,-7.86 16.37,-11.78 27.43,-11.78 12.4,0 22.19,4.11 29.39,12.32 7.16,8.21 10.6,20.8 10.28,37.76l-55.24 0c0.16,6.55 1.93,11.65 5.34,15.3 3.38,3.65 7.62,5.48 12.67,5.48 3.46,0 6.36,-0.94 8.7,-2.82 2.36,-1.88 4.13,-4.91 5.34,-9.1zm1.29 -22.39c-0.17,-6.41 -1.8,-11.29 -4.94,-14.62 -3.14,-3.36 -6.95,-5.02 -11.46,-5.02 -4.81,0 -8.78,1.77 -11.92,5.29 -3.14,3.51 -4.67,8.32 -4.62,14.35l32.94 0zm39.32 -34.78l20.61 0 0 12.27c2.69,-4.19 6.28,-7.57 10.85,-10.18 4.56,-2.57 9.63,-3.86 15.19,-3.86 9.69,0 17.93,3.81 24.69,11.43 6.77,7.6 10.15,18.23 10.15,31.81 0,13.98 -3.41,24.83 -10.23,32.58 -6.82,7.76 -15.08,11.62 -24.8,11.62 -4.62,0 -8.8,-0.91 -12.56,-2.76 -3.73,-1.83 -7.7,-4.97 -11.84,-9.42l0 41.81 -22.06 0 0 -115.3zm21.74 40.5c0,9.42 1.85,16.37 5.58,20.88 3.71,4.49 8.24,6.74 13.56,6.74 5.12,0 9.39,-2.07 12.8,-6.2 3.41,-4.13 5.1,-10.9 5.1,-20.32 0,-8.8 -1.74,-15.32 -5.26,-19.59 -3.49,-4.27 -7.84,-6.39 -13.02,-6.39 -5.39,0 -9.87,2.09 -13.42,6.28 -3.57,4.19 -5.34,10.39 -5.34,18.6zm125.59 16.67l22.06 3.7c-2.82,8.08 -7.3,14.23 -13.39,18.47 -6.12,4.21 -13.77,6.33 -22.93,6.33 -14.52,0 -25.28,-4.75 -32.23,-14.25 -5.5,-7.62 -8.27,-17.23 -8.27,-28.85 0,-13.85 3.63,-24.72 10.85,-32.56 7.22,-7.86 16.37,-11.78 27.43,-11.78 12.4,0 22.19,4.11 29.39,12.32 7.16,8.21 10.6,20.8 10.28,37.76l-55.24 0c0.16,6.55 1.93,11.65 5.34,15.3 3.38,3.65 7.62,5.48 12.67,5.48 3.46,0 6.36,-0.94 8.7,-2.82 2.36,-1.88 4.13,-4.91 5.34,-9.1zm1.29 -22.39c-0.17,-6.41 -1.8,-11.29 -4.94,-14.62 -3.14,-3.36 -6.95,-5.02 -11.46,-5.02 -4.81,0 -8.78,1.77 -11.92,5.29 -3.14,3.51 -4.67,8.32 -4.62,14.35l32.94 0zm72.46 48.8l0 -35.59c-2.87,0.21 -4.89,0.86 -6.01,1.93 -1.13,1.08 -3.12,4.24 -5.94,9.53l-10.52 24.13 -23.75 0 11.78 -23.03c5.99,-11.49 12.19,-18.09 18.63,-19.75 -4.8,-1.85 -8.48,-6.61 -11.03,-14.31 -1.96,-5.74 -3.71,-9.18 -5.32,-10.31 -1.58,-1.12 -5.31,-1.69 -11.16,-1.69l0 -14.57c4.35,-0.27 7.38,-0.4 9.1,-0.4 4.86,0 9.02,1.07 12.48,3.22 3.46,2.17 6.71,7.54 9.74,16.1 2.34,6.69 4.24,10.9 5.64,12.67 1.42,1.74 3.54,2.68 6.36,2.79l0 -34.3 22.06 0 0 34.3c2.82,0 4.97,-0.91 6.39,-2.76 1.45,-1.83 3.33,-6.07 5.61,-12.7 3,-8.45 6.17,-13.79 9.55,-16.02 3.36,-2.2 7.71,-3.3 12.99,-3.3 1.51,0 4.43,0.13 8.78,0.4l0 14.57c-5.8,0 -9.5,0.57 -11.14,1.69 -1.61,1.13 -3.38,4.57 -5.31,10.31 -2.58,7.7 -6.26,12.46 -11.06,14.31 6.44,1.66 12.64,8.26 18.63,19.75l11.78 23.03 -23.75 0 -10.44 -24.13c-1.88,-4.29 -3.63,-7.22 -5.24,-8.78 -1.58,-1.58 -3.86,-2.47 -6.79,-2.68l0 35.59 -22.06 0zm97.94 -57.81l-19.97 -3.55c2.26,-8.16 6.15,-14.19 11.65,-18.11 5.5,-3.92 13.69,-5.88 24.53,-5.88 9.85,0 17.21,1.15 22.04,3.49 4.8,2.33 8.21,5.29 10.17,8.88 1.96,3.6 2.95,10.17 2.95,19.78l-0.32 25.77c0,7.33 0.35,12.75 1.05,16.24 0.7,3.49 2.01,7.22 3.94,11.19l-21.9 0c-0.56,-1.45 -1.29,-3.6 -2.12,-6.44 -0.35,-1.32 -0.62,-2.18 -0.78,-2.58 -3.75,3.71 -7.78,6.47 -12.08,8.32 -4.29,1.85 -8.85,2.79 -13.71,2.79 -8.56,0 -15.33,-2.33 -20.26,-7 -4.94,-4.65 -7.41,-10.55 -7.41,-17.69 0,-4.7 1.12,-8.91 3.38,-12.61 2.25,-3.68 5.39,-6.53 9.47,-8.49 4.06,-1.95 9.91,-3.67 17.56,-5.15 10.3,-1.93 17.47,-3.76 21.44,-5.42l0 -2.23c0,-4.29 -1.04,-7.35 -3.14,-9.2 -2.12,-1.83 -6.09,-2.74 -11.91,-2.74 -3.95,0 -7.01,0.78 -9.21,2.36 -2.23,1.56 -4,4.32 -5.37,8.27zm29.63 17.87c-2.82,0.94 -7.3,2.07 -13.44,3.38 -6.12,1.32 -10.15,2.61 -12.03,3.84 -2.87,2.07 -4.32,4.65 -4.32,7.79 0,3.11 1.15,5.77 3.46,8.02 2.31,2.26 5.24,3.38 8.81,3.38 3.97,0 7.78,-1.31 11.4,-3.92 2.66,-2.01 4.43,-4.42 5.26,-7.32 0.57,-1.88 0.86,-5.48 0.86,-10.77l0 -4.4zm161.04 -18.84l-21.74 3.87c-0.72,-4.33 -2.38,-7.57 -4.99,-9.77 -2.6,-2.18 -5.96,-3.28 -10.09,-3.28 -5.5,0 -9.9,1.91 -13.18,5.72 -3.27,3.81 -4.91,10.17 -4.91,19.11 0,9.93 1.66,16.93 4.99,21.04 3.33,4.11 7.79,6.15 13.37,6.15 4.19,0 7.62,-1.21 10.28,-3.6 2.68,-2.39 4.56,-6.49 5.66,-12.35l21.74 3.71c-2.25,9.98 -6.57,17.52 -12.96,22.62 -6.39,5.1 -14.95,7.65 -25.71,7.65 -12.19,0 -21.93,-3.86 -29.18,-11.56 -7.27,-7.73 -10.9,-18.42 -10.9,-32.08 0,-13.82 3.65,-24.56 10.93,-32.26 7.27,-7.7 17.12,-11.54 29.55,-11.54 10.14,0 18.22,2.2 24.23,6.57 5.99,4.38 10.28,11.04 12.91,20zm35.16 0.97l-19.97 -3.55c2.26,-8.16 6.15,-14.19 11.65,-18.11 5.5,-3.92 13.69,-5.88 24.53,-5.88 9.85,0 17.21,1.15 22.04,3.49 4.8,2.33 8.21,5.29 10.17,8.88 1.96,3.6 2.95,10.17 2.95,19.78l-0.32 25.77c0,7.33 0.35,12.75 1.05,16.24 0.7,3.49 2.01,7.22 3.94,11.19l-21.9 0c-0.56,-1.45 -1.29,-3.6 -2.12,-6.44 -0.35,-1.32 -0.62,-2.18 -0.78,-2.58 -3.75,3.71 -7.78,6.47 -12.08,8.32 -4.29,1.85 -8.85,2.79 -13.71,2.79 -8.56,0 -15.33,-2.33 -20.26,-7 -4.94,-4.65 -7.41,-10.55 -7.41,-17.69 0,-4.7 1.12,-8.91 3.38,-12.61 2.25,-3.68 5.39,-6.53 9.47,-8.49 4.06,-1.95 9.91,-3.67 17.56,-5.15 10.3,-1.93 17.47,-3.76 21.44,-5.42l0 -2.23c0,-4.29 -1.04,-7.35 -3.14,-9.2 -2.12,-1.83 -6.09,-2.74 -11.91,-2.74 -3.95,0 -7.01,0.78 -9.21,2.36 -2.23,1.56 -4,4.32 -5.37,8.27zm29.63 17.87c-2.82,0.94 -7.3,2.07 -13.44,3.38 -6.12,1.32 -10.15,2.61 -12.03,3.84 -2.87,2.07 -4.32,4.65 -4.32,7.79 0,3.11 1.15,5.77 3.46,8.02 2.31,2.26 5.24,3.38 8.81,3.38 3.97,0 7.78,-1.31 11.4,-3.92 2.66,-2.01 4.43,-4.42 5.26,-7.32 0.57,-1.88 0.86,-5.48 0.86,-10.77l0 -4.4zm49.47 -43.64l73.92 0 0 83.58 -22.06 0 0 -65.7 -29.96 0 0 37.6c0,9.55 -1.1,16.26 -3.3,20.13 -2.22,3.86 -4.67,6.39 -7.35,7.59 -2.66,1.21 -6.98,1.83 -12.91,1.83 -3.52,0 -8.19,-0.48 -13.96,-1.4l0 -16.23c0.49,0 1.72,0.05 3.71,0.16 2.3,0.16 4.1,0.24 5.36,0.24 3.01,0 4.84,-1 5.53,-2.95 0.67,-1.99 1.02,-7.47 1.02,-16.46l0 -48.39zm89.06 40.77c0,-7.35 1.8,-14.47 5.42,-21.34 3.63,-6.9 8.75,-12.13 15.38,-15.75 6.63,-3.63 14.01,-5.45 22.2,-5.45 12.64,0 22.97,4.11 31.05,12.32 8.08,8.24 12.11,18.6 12.11,31.16 0,12.67 -4.08,23.16 -12.21,31.48 -8.16,8.32 -18.42,12.48 -30.79,12.48 -7.65,0 -14.95,-1.74 -21.9,-5.2 -6.93,-3.47 -12.21,-8.54 -15.84,-15.25 -3.62,-6.68 -5.42,-14.84 -5.42,-24.45zm22.71 1.18c0,8.29 1.96,14.66 5.88,19.06 3.94,4.43 8.77,6.63 14.54,6.63 5.75,0 10.58,-2.2 14.47,-6.63 3.89,-4.4 5.85,-10.82 5.85,-19.22 0,-8.19 -1.96,-14.49 -5.85,-18.9 -3.89,-4.42 -8.72,-6.62 -14.47,-6.62 -5.77,0 -10.6,2.2 -14.54,6.62 -3.92,4.41 -5.88,10.77 -5.88,19.06zm79.85 -41.95l22.06 0 0 30.6 31.89 0 0 -30.6 22.06 0 0 83.58 -22.06 0 0 -35.11 -31.89 0 0 35.11 -22.06 0 0 -83.58zm98.23 -11.27l0 -20.45 22.07 0 0 20.45 -22.07 0zm0 94.85l0 -83.58 22.07 0 0 83.58 -22.07 0zm44.91 -83.58l48.42 0c9.93,0 17.33,1.8 22.27,5.42 4.94,3.63 7.41,9.1 7.41,16.4 0,4.67 -1.34,8.75 -4.05,12.21 -2.69,3.47 -6.1,5.77 -10.17,6.93 5.74,1.42 10.03,4.05 12.88,7.94 2.82,3.89 4.24,8.14 4.24,12.75 0,6.5 -2.39,11.78 -7.17,15.84 -4.77,4.05 -11.83,6.09 -21.17,6.09l-52.66 0 0 -83.58zm22.06 34.78l14.33 0c6.93,0 11.92,-0.85 15,-2.6 3.09,-1.74 4.65,-4.48 4.65,-8.21 0,-3.54 -1.45,-6.04 -4.32,-7.54 -2.88,-1.51 -7.97,-2.26 -15.33,-2.26l-14.33 0 0 20.61zm0 34.63l17.55 0c6.34,0 10.95,-0.75 13.85,-2.28 2.9,-1.53 4.35,-4.24 4.35,-8.19 0,-4.11 -1.66,-6.92 -4.99,-8.45 -3.3,-1.56 -9.77,-2.34 -19.38,-2.34l-11.38 0 0 21.26zm121.67 -69.41l48.42 0c9.93,0 17.33,1.8 22.27,5.42 4.94,3.63 7.41,9.1 7.41,16.4 0,4.67 -1.34,8.75 -4.05,12.21 -2.69,3.47 -6.1,5.77 -10.17,6.93 5.74,1.42 10.03,4.05 12.88,7.94 2.82,3.89 4.24,8.14 4.24,12.75 0,6.5 -2.39,11.78 -7.17,15.84 -4.77,4.05 -11.83,6.09 -21.17,6.09l-52.66 0 0 -83.58zm22.06 34.78l14.33 0c6.93,0 11.92,-0.85 15,-2.6 3.09,-1.74 4.65,-4.48 4.65,-8.21 0,-3.54 -1.45,-6.04 -4.32,-7.54 -2.88,-1.51 -7.97,-2.26 -15.33,-2.26l-14.33 0 0 20.61zm0 34.63l17.55 0c6.34,0 10.95,-0.75 13.85,-2.28 2.9,-1.53 4.35,-4.24 4.35,-8.19 0,-4.11 -1.66,-6.92 -4.99,-8.45 -3.3,-1.56 -9.77,-2.34 -19.38,-2.34l-11.38 0 0 21.26zm99.15 -19.97l0 -14.33c3.84,0 6.63,-0.24 8.37,-0.75 1.72,-0.51 3.36,-1.72 4.92,-3.65 1.55,-1.94 2.33,-4.14 2.33,-6.63 0,-2.63 -0.97,-5.1 -2.87,-7.33 -1.91,-2.26 -4.78,-3.38 -8.59,-3.38 -2.93,0 -5.56,0.61 -7.86,1.88 -2.31,1.23 -4.41,4.21 -6.29,8.91l-18.68 -4.03c1.88,-7.3 5.94,-12.78 12.11,-16.43 6.17,-3.65 13.23,-5.47 21.12,-5.47 10.07,0 17.85,2.31 23.38,6.95 5.53,4.62 8.29,10.41 8.29,17.42 0,4.37 -1.18,7.97 -3.57,10.84 -2.39,2.87 -6.14,5.53 -11.3,8 6.18,1.69 10.79,4.24 13.83,7.65 3.06,3.41 4.59,7.65 4.59,12.75 0,6.49 -3.04,12.1 -9.1,16.8 -6.07,4.7 -14.82,7.03 -26.23,7.03 -19.88,0 -32.04,-7.78 -36.5,-23.35l20.13 -3.7c3.25,8.16 8.62,12.24 16.11,12.24 4.16,0 7.46,-1.1 9.95,-3.28 2.5,-2.17 3.73,-4.72 3.73,-7.67 0,-3.25 -1.28,-5.8 -3.89,-7.68 -2.6,-1.85 -6.01,-2.79 -10.2,-2.79l-3.78 0zm43.03 -49.44l23.51 0 20.05 59.29 19.56 -59.29 22.87 0 -29.47 80.44 -5.31 14.52c-1.96,4.86 -3.81,8.56 -5.59,11.14 -1.74,2.55 -3.78,4.64 -6.06,6.23 -2.28,1.61 -5.1,2.84 -8.46,3.73 -3.32,0.88 -7.11,1.34 -11.32,1.34 -4.24,0 -8.43,-0.46 -12.54,-1.34l-1.93 -17.23c3.46,0.67 6.6,1.02 9.39,1.02 5.16,0 8.97,-1.51 11.44,-4.54 2.47,-3.03 4.37,-6.9 5.69,-11.57l-31.83 -83.74zm92.16 0l75.53 0 0 17.88 -26.73 0 0 65.7 -22.07 0 0 -65.7 -26.73 0 0 -17.88zm78.86 0l75.53 0 0 17.88 -26.73 0 0 65.7 -22.07 0 0 -65.7 -26.73 0 0 -17.88zm160.51 0l0 83.58 -22.06 0 0 -34.62 -2.04 0c-4.78,0 -8.3,0.61 -10.53,1.85 -2.25,1.23 -4.72,3.84 -7.46,7.81l-1.34 1.64 -14.57 23.32 -25.74 0 15.83 -24.18c4.51,-6.93 8.59,-10.9 12.24,-11.95 -6.17,-0.37 -11.19,-2.71 -15.06,-7.06 -3.83,-4.32 -5.77,-9.85 -5.77,-16.58 0,-5.42 1.29,-10.04 3.84,-13.88 2.55,-3.84 5.93,-6.44 10.17,-7.84 4.22,-1.39 10.53,-2.09 18.87,-2.09l43.62 0zm-22.06 14.17l-15.87 0c-5.85,0 -9.93,0.83 -12.32,2.5 -2.36,1.66 -3.54,4.4 -3.54,8.24 0,3.86 1.34,6.63 4.03,8.32 2.68,1.69 7.08,2.52 13.17,2.52l14.53 0 0 -21.58z"/>
  </g>
 </g>
</svg>
