<?xml version="1.0" encoding="UTF-8"?>
<!DOCTYPE svg PUBLIC "-//W3C//DTD SVG 1.1//EN" "http://www.w3.org/Graphics/SVG/1.1/DTD/svg11.dtd">
<!-- Creator: CorelDRAW 2018 (64-Bit) -->
<svg xmlns="http://www.w3.org/2000/svg" xml:space="preserve" width="47.9505mm" height="31.1083mm" version="1.1" style="shape-rendering:geometricPrecision; text-rendering:geometricPrecision; image-rendering:optimizeQuality; fill-rule:evenodd; clip-rule:evenodd"
viewBox="0 0 2778.67 1802.69"
 xmlns:xlink="http://www.w3.org/1999/xlink">
 <defs>
  <style type="text/css">
   <![CDATA[
    .fil0 {fill:#E00027}
   ]]>
  </style>
 </defs>
 <g id="Слой_x0020_1">
  <metadata id="CorelCorpID_0Corel-Layer"/>
  <path class="fil0" d="M1029.05 1336.61l906.86 0c28.46,-10.23 215.48,-4.96 410.93,-138.74 35.45,-24.26 77.59,-56.69 101.2,-84.61 48.6,-57.49 113.57,-145.7 109.6,-259.26 -3.8,-108.88 -81.62,-169.7 -174.95,-193.96 57,-28.65 89.33,-18.84 197.48,-93.76 16.56,-11.47 44.96,-32.72 55.97,-44.15 17.07,-17.73 32.61,-32.15 46.59,-49.88 29.75,-37.74 57.64,-77.27 74.9,-125.23 8.38,-23.28 10.57,-58.77 21.05,-79.86l0 -71.47c-5.9,-12.8 -7.72,-32.31 -13.19,-46.63 -16.82,-43.94 -41.94,-71.76 -82.94,-95.92 -26.73,-15.76 -51.95,-25.56 -83.5,-34.34 -27.09,-7.53 -81.27,-10.43 -100.22,-18.79l-820.45 0 -92.83 163.26 402.29 29.61 -12.44 25.77 -438.57 28.5 -129.13 224.66 402.45 26.34c-1.91,11.6 -6.03,15.73 -12.04,25.87 -123.85,13.43 -256.69,16.82 -382.22,25.17l-963.9 62.52c-42.71,2.53 -34.62,-3.87 -60.4,42.45 -10.95,19.67 -29.55,47.28 -37.52,67.78l1279.65 80.75c0.38,9.5 -5.45,16.43 -10.06,25.77l-715.61 42.13 50.06 192.39c5.88,17.76 14.57,12.42 37.07,13.54 30.9,1.55 62.31,3.85 92.99,5.69 122.99,7.38 251.16,19.3 373.75,22.34 -11.61,36.89 -24.09,27.57 -64.58,30.42l-395.29 27.39c-21.17,1.71 -17.84,1.67 -12.08,22.01 14.08,49.61 26.34,101.33 39.11,152.24zm960.73 -822.01c54.52,3.85 160.16,1.85 205.06,-11.95 176.72,-54.36 162.41,-240.84 62.05,-240.85 -145.99,-0.01 -113.61,-16.87 -155.7,57.81 -31.5,55.91 -88.84,148.17 -111.42,195zm-300.7 522.26c141.03,6.58 278.7,1.37 347.15,-88.9 34.58,-45.61 50.26,-119.2 1.69,-157.21 -26.33,-20.59 -49.07,-18.82 -88.37,-18.8 -34.03,0.02 -76.96,-2.29 -109.89,0.89 -20.36,39.95 -140.95,240.53 -150.57,264.02z"/>
  <path class="fil0" d="M1030.73 1802.69l37.24 0c23.05,-11.61 52.88,-8.95 80.84,-59.71 63.51,-115.28 -54.84,-233.9 -153.01,-179.77 -8.62,4.76 -14.52,10.88 -21.78,14.64l-0.01 -97.81 -57.18 0 -0.02 315.42 52.57 0.01 -0.01 -26.78c9.72,5.75 13.25,14.24 26.58,21.81 12.81,7.27 24.51,7.39 34.78,12.19zm-1.17 -198.57c-37.34,6.59 -65.07,39.97 -57.79,85 5.86,36.22 36.83,67.63 80.86,60.42 87.14,-14.27 68.32,-161.56 -23.07,-145.42z"/>
  <path class="fil0" d="M1632.61 1802.69l30.14 0c19.71,-9.31 39.65,-7.11 67.15,-34.28l0.89 26.3 52.46 0.68 -0.03 -236.77 -51.8 -0.21 -0.9 28.2 -9.06 -8.24c-27.26,-24.45 -60.72,-33.22 -97.89,-24.56 -84.14,19.6 -110.41,120.6 -75.1,187.25 28.7,54.18 64.53,52.51 84.15,61.64zm18.8 -198.96c-37.01,4.87 -64.21,38.16 -60.68,80.66 7.75,93.26 147.03,86.59 137.99,-15.81 -3.49,-39.51 -34.32,-70.5 -77.31,-64.85z"/>
  <path class="fil0" d="M1277.09 1802.69l32.98 0c24.05,-11.84 25.79,0.21 67.13,-34.8l0.46 27.58 52.51 0 -0.01 -237.09 -52.56 0 0 28.73c-12.69,-9.21 -14.31,-18.28 -43.12,-29.98 -51.74,-21 -117.22,6.65 -142.77,63.89 -16.1,36.09 -13.98,83.59 2.42,117.71 8.36,17.37 19.45,29.76 31.91,40.26 20.8,17.54 39.49,17.43 51.05,23.7zm21.65 -198.96c-90.13,11.78 -76.07,156.62 16.34,146.4 89.27,-9.87 77.22,-158.62 -16.34,-146.4z"/>
  <path class="fil0" d="M350.36 1802.69l35.16 0c9.43,-4.75 22.75,-6.44 32.41,-11.2 10.18,-5 20.73,-11.4 27.73,-17.71 13.75,-12.42 30.18,-30.77 35.99,-53.57l-60.43 0.05c-31.92,60.39 -118.93,18.14 -117.01,-17.58l178.61 0.02c8.73,-2.72 6.64,-35.41 5.91,-42.09 -10.79,-98.96 -124.64,-143.7 -196.71,-85.81 -32.12,25.8 -61.94,77.18 -44.13,139.17 7.72,26.89 21.67,43.58 36.91,57.92 26.28,24.74 52.01,24.54 65.58,30.8zm-48.86 -146.51l129.26 0.09c-13.99,-73.27 -111.65,-72.13 -129.26,-0.09z"/>
  <path class="fil0" d="M2403.83 1802.69l35.2 0c13.46,-6.79 37.64,-8.35 60.11,-28.92 14.76,-13.51 29.05,-29.94 36,-53.56l-56.57 0c-9.38,1.95 -18.82,37.4 -68.59,29.44 -13.72,-2.19 -25.81,-8.39 -33.43,-16.09 -6.04,-6.11 -19.86,-18.15 -18.84,-30.88l178.59 0.01c4.87,-1.55 5.17,-7.47 6.06,-17.52 4,-45.55 -17.21,-88.52 -52.8,-114.1 -42.47,-30.53 -103.44,-28.49 -143.88,3.86 -16.6,13.28 -29.94,28.31 -40.33,54.57 -25.09,63.44 1.62,132.03 61.56,161.26 13.77,6.71 27.23,7.41 36.93,11.93zm-48.96 -146.4l129.38 -0.03c-15.59,-74.28 -112.4,-71.29 -129.38,0.03z"/>
  <polygon class="fil0" points="590.64,306.92 530.43,413.7 1403.87,472.07 1348.6,259.54 "/>
  <path class="fil0" d="M561.4 1795.11c46.27,0.4 31.84,13.77 57.37,-74.97 4.35,-15.12 16.93,-65.22 22.8,-75.57l44.55 150.77 36.1 0.09 85.82 -236.82 -61.58 -0.23c-4.04,20.62 -27.49,92.9 -36.47,123.07l-3.96 12.75c-2.62,5.71 -1.23,2.61 -2.6,4.55 -6.36,-11.4 -23.65,-83.53 -29.37,-105.8 -11.2,-43.61 -1.64,-34.58 -55.17,-34.51l-37.83 143.22 -43.72 -143.14 -60.43 -0.09 84.52 236.68z"/>
  <polygon class="fil0" points="236.82,921.53 176.32,1028.55 792.73,1063.85 903.4,871.94 "/>
  <path class="fil0" d="M1866.5 1577.21l-0.91 -18.07 -52.97 -0.83 0.05 237.18 56.42 -0.06c8,-46.9 -8.98,-137.2 9.8,-169.73 16.97,-29.39 86.21,-45.41 86.85,47.1 0.28,40.59 -0.07,81.31 -0.03,121.92l57.23 0.82c-0.09,-53 7.54,-160.11 -13.54,-199.86 -26.41,-49.8 -101.35,-59.33 -142.9,-18.46z"/>
  <path class="fil0" d="M18.91 1558.38l0 237.1 56.2 -0.09c9.41,-77.52 -23.99,-188.14 47.09,-192.13 39.05,-2.2 48.27,32.34 49.6,69.53 1.42,39.83 0.17,81.84 0.19,121.92l57.21 0.69c-0.97,-104.75 22.88,-227.43 -78.94,-243.61 -48.46,-7.7 -70.34,21.77 -78.79,25.29l-0.01 -18.69 -52.56 0z"/>
  <path class="fil0" d="M2151.14 1802.69l38.4 0c20.1,-10.11 27.01,-1.32 61.56,-29.5 12.85,-10.49 30.13,-32.74 36.37,-55.54l-60.43 0.01c-7.15,2.4 -2.7,-0.21 -8.3,6.69 -45.51,56.08 -116.43,14.92 -118,-45.3 -0.98,-37.56 18.05,-61.48 44.39,-71.7 14.84,-5.75 33.2,-5.78 47.99,0.35 17.71,7.35 20.08,15.13 30.31,29.39l63.54 0.16c-12.41,-73.68 -140.32,-129.55 -213.87,-42.07 -45.62,54.26 -37.77,137.6 18.22,180.35 30.9,23.61 41.93,18.33 59.82,27.15z"/>
  <polygon class="fil0" points="-0,1336.61 636.21,1336.61 723.93,1182.35 60.24,1229.98 "/>
  <path class="fil0" d="M1281.25 0l-513.75 0c-15.19,35.64 -46.54,73.02 -59.41,107.45l610.37 38.31 -37.21 -145.76z"/>
  <polygon class="fil0" points="1459.56,1795.48 1513.68,1795.47 1516.75,1795.44 1516.77,1487.24 1516.76,1480.05 1459.56,1480.03 "/>
 </g>
</svg>
